<svg xmlns="http://www.w3.org/2000/svg" width="400" height="300" viewBox="0 0 400 300">
  <defs>
    <linearGradient id="sky" x1="0" y1="0" x2="0" y2="1">
      <stop offset="0%" stop-color="#2a1b3d"/>
      <stop offset="100%" stop-color="#160d24"/>
    </linearGradient>
    <linearGradient id="frosting" x1="0" y1="0" x2="0" y2="1">
      <stop offset="0%" stop-color="#fff4f7"/>
      <stop offset="100%" stop-color="#f3c9d8"/>
    </linearGradient>
    <linearGradient id="sponge" x1="0" y1="0" x2="0" y2="1">
      <stop offset="0%" stop-color="#a9623a"/>
      <stop offset="100%" stop-color="#7c4426"/>
    </linearGradient>
    <radialGradient id="flame" cx="50%" cy="40%" r="60%">
      <stop offset="0%" stop-color="#fff6c0"/>
      <stop offset="55%" stop-color="#ffb036"/>
      <stop offset="100%" stop-color="#ff6a1a"/>
    </radialGradient>
  </defs>

  <rect width="400" height="300" fill="url(#sky)"/>

  <!-- sparkles -->
  <g fill="#f4d98b" opacity="0.7">
    <circle cx="60" cy="50" r="2"/><circle cx="330" cy="40" r="2.4"/>
    <circle cx="120" cy="30" r="1.6"/><circle cx="280" cy="70" r="1.8"/>
    <circle cx="40" cy="120" r="1.6"/><circle cx="360" cy="120" r="2"/>
  </g>

  <!-- plate -->
  <ellipse cx="200" cy="252" rx="140" ry="20" fill="#241634"/>
  <ellipse cx="200" cy="248" rx="128" ry="16" fill="#3a2750"/>

  <!-- bottom tier -->
  <rect x="92" y="170" width="216" height="78" rx="10" fill="url(#sponge)"/>
  <path d="M92 182 q27-18 54 0 t54 0 t54 0 t54 0 v-12 H92 Z" fill="url(#frosting)"/>
  <!-- top tier -->
  <rect x="126" y="120" width="148" height="56" rx="9" fill="url(#sponge)"/>
  <path d="M126 132 q24.7-16 49.3 0 t49.3 0 t49.4 0 v-12 H126 Z" fill="url(#frosting)"/>

  <!-- candles -->
  <g>
    <rect x="168" y="86" width="9" height="34" rx="2" fill="#e96a9a"/>
    <rect x="173" y="86" width="4" height="34" fill="#ffd1e1" opacity="0.5"/>
    <rect x="196" y="80" width="9" height="40" rx="2" fill="#6aa9e9"/>
    <rect x="201" y="80" width="4" height="40" fill="#cfe4ff" opacity="0.5"/>
    <rect x="224" y="86" width="9" height="34" rx="2" fill="#8ad08f"/>
    <rect x="229" y="86" width="4" height="34" fill="#d6f0d8" opacity="0.5"/>
  </g>
  <!-- flames -->
  <g>
    <path d="M172.5 86 c5-6 5-12 0-18 c-5 6-5 12 0 18 Z" fill="url(#flame)"/>
    <path d="M200.5 80 c5.5-6.5 5.5-13 0-20 c-5.5 6.5-5.5 13 0 20 Z" fill="url(#flame)"/>
    <path d="M228.5 86 c5-6 5-12 0-18 c-5 6-5 12 0 18 Z" fill="url(#flame)"/>
  </g>

  <!-- sprinkles -->
  <g stroke-width="3" stroke-linecap="round">
    <line x1="150" y1="150" x2="156" y2="146" stroke="#ffd23f"/>
    <line x1="220" y1="152" x2="226" y2="148" stroke="#5ad2c0"/>
    <line x1="185" y1="205" x2="191" y2="201" stroke="#ff7aa8"/>
    <line x1="250" y1="208" x2="256" y2="204" stroke="#7aa8ff"/>
    <line x1="128" y1="210" x2="134" y2="206" stroke="#b58aff"/>
  </g>
</svg>
